<mxfile host="app.diagrams.net" modified="2024-03-01T06:48:47.161Z" agent="Mozilla/5.0 (Macintosh; Intel Mac OS X 10_15_7) AppleWebKit/537.36 (KHTML, like Gecko) Chrome/122.0.0.0 Safari/537.36" version="24.0.0" etag="wL5FwQTYOmKHJGblB_Jo" type="github">
  <diagram name="Page-1" id="3iOKhOY01zaVjpB3K9Vy">
    <mxGraphModel>
      <root>
        <mxCell id="0" />
        <mxCell id="1" parent="0" />
      </root>
    </mxGraphModel>
  </diagram>
</mxfile>
